{"asset":{"generator":"3D Builder","version":"2.0"},"scene":0,"scenes":[{"nodes":[0]}],"nodes":[{"mesh":0,"matrix":[1,0,0,0,0,0.99999970197677612,7.1525550993101206E-7,0,0,-7.8792584190523485E-7,0.99999940395355225,0,0,11.620944976806641,-11.391308784484863,1]}],"meshes":[{"primitives":[{"attributes":{"POSITION":0},"mode":4,"indices":1}]}],"accessors":[{"bufferView":0,"byteOffset":0,"count":19999,"componentType":5126,"type":"VEC3","min":[-10.342143058776855,-16.369178771972656,-8.5953740835975623E-7],"max":[10.342143058776855,15.90992546081543,22.782621383666992]},{"bufferView":1,"byteOffset":0,"count":119982,"componentType":5125,"type":"SCALAR"}],"bufferViews":[{"buffer":0,"byteOffset":0,"byteLength":239988,"byteStride":12,"target":34962},{"buffer":0,"byteOffset":239988,"byteLength":479928,"target":34963}],"buffers":[{"byteLength":719916,"uri":"test_2.bin"}]}