{"asset":{"generator":"3D Builder","version":"2.0"},"scene":0,"scenes":[{"nodes":[0]}],"nodes":[{"mesh":0,"matrix":[-0.99999988079071045,2.3841855067985307E-7,0,0,-1.4210852174103162E-14,-5.9604609248253837E-8,0.99999958276748657,0,2.3841853646899835E-7,0.99999958276748657,5.9604609248253837E-8,0,0.096270546317100525,-1.1017009171609971E-7,0.021078070625662804,1]}],"meshes":[{"primitives":[{"attributes":{"POSITION":0,"COLOR_0":1},"mode":4,"indices":2}]}],"accessors":[{"bufferView":0,"byteOffset":0,"count":20271,"componentType":5126,"type":"VEC3","min":[0.0012927352217957377,-0.099873006343841553,8.9406967163085938E-8],"max":[0.22792479395866394,0.10883380472660065,0.32738351821899414]},{"bufferView":1,"byteOffset":0,"count":20271,"componentType":5121,"type":"VEC4","normalized":true},{"bufferView":2,"byteOffset":0,"count":122094,"componentType":5125,"type":"SCALAR"}],"bufferViews":[{"buffer":0,"byteOffset":0,"byteLength":243252,"byteStride":12,"target":34962},{"buffer":0,"byteOffset":243252,"byteLength":81084,"byteStride":4,"target":34962},{"buffer":0,"byteOffset":324336,"byteLength":488376,"target":34963}],"buffers":[{"byteLength":812712,"uri":"untitled.bin"}]}